<svg xmlns="http://www.w3.org/2000/svg" xmlns:xlink="http://www.w3.org/1999/xlink" preserveAspectRatio="xMidYMid" width="96" height="101" viewBox="0 0 96 101">
  <defs>
    <style>

      .cls-2 {
        fill: #2d2c2c;
      }
    </style>
  </defs>
  <path d="M91.346,49.331 C92.338,49.176 94.459,48.401 95.495,46.358 C92.128,44.393 90.938,42.862 90.157,40.909 C91.121,40.586 93.240,39.419 94.023,37.252 C90.501,36.096 88.722,34.804 87.537,32.969 C89.017,32.195 90.354,30.831 90.771,28.890 C87.367,28.017 85.057,27.290 83.573,25.550 C84.863,24.670 86.014,22.819 86.166,21.063 C81.845,20.275 79.251,19.327 76.705,17.284 C77.426,16.495 78.328,14.854 78.328,12.549 C74.884,12.404 72.045,12.090 69.681,11.273 C73.703,8.215 72.645,2.907 71.041,1.573 C66.469,8.267 58.662,-0.004 48.171,-0.004 C45.280,-0.004 42.847,1.403 41.697,3.564 C40.018,2.965 38.996,3.828 38.715,4.457 C37.726,6.985 35.195,8.556 31.732,8.556 C31.644,6.498 29.829,4.811 27.595,4.811 C24.923,4.811 22.981,6.841 22.981,9.538 C22.981,12.236 25.236,14.169 28.251,15.198 C8.869,21.738 -3.407,41.696 0.837,63.734 C0.837,63.734 0.388,64.448 0.184,65.085 C0.184,65.085 2.230,68.910 3.142,71.305 C3.142,71.305 2.835,71.821 2.710,72.468 C4.114,74.534 5.628,76.641 6.540,77.947 C6.540,77.947 6.269,78.666 6.368,79.499 C8.122,80.537 10.864,83.607 11.071,83.832 C11.071,83.832 10.815,84.872 11.205,85.728 C13.837,86.696 16.446,88.845 16.650,89.004 C16.573,89.935 16.794,90.679 17.166,91.139 C20.447,91.509 22.678,92.981 22.866,93.082 C22.866,93.082 22.933,94.554 23.656,95.275 C27.616,95.275 29.867,96.178 29.917,96.195 C30.050,96.978 30.382,97.991 31.261,98.525 C34.540,97.633 36.430,98.036 37.127,98.107 C37.293,98.952 37.982,100.183 39.174,100.394 C41.349,99.092 43.325,98.901 45.069,98.815 C45.373,99.716 46.164,100.705 47.313,101.000 C48.332,100.402 49.840,98.879 52.981,98.191 C53.307,98.754 54.644,100.243 55.929,100.243 C57.612,97.652 58.438,97.107 60.753,96.213 C60.765,96.209 60.777,96.204 60.789,96.201 C61.230,96.768 62.421,97.932 64.272,97.932 C65.503,94.726 66.248,94.087 68.363,92.770 C68.926,93.295 70.834,94.497 72.367,94.161 C72.802,90.235 73.402,89.600 75.324,87.874 C75.995,88.336 78.136,89.137 79.813,88.731 C79.100,84.638 80.182,83.253 81.294,81.758 C82.074,82.130 84.449,82.617 86.037,81.815 C84.409,77.948 85.458,75.927 86.002,74.768 C86.594,74.948 89.311,75.251 90.640,74.222 C88.605,70.215 89.301,67.416 89.453,66.652 C89.746,66.696 93.083,66.878 93.976,64.882 C90.907,62.091 91.189,58.200 91.190,58.149 C91.195,58.150 91.200,58.150 91.205,58.150 C92.179,58.152 94.398,57.788 95.588,55.854 C92.629,53.267 91.782,51.521 91.346,49.331 ZM83.042,59.334 C83.572,60.687 84.910,63.323 87.611,64.771 C87.254,66.005 86.334,69.295 87.784,72.831 C83.214,72.240 80.702,66.923 83.042,59.334 ZM82.926,79.757 C79.766,78.689 77.057,73.107 80.965,66.459 C81.160,67.491 81.479,68.483 81.914,69.389 C81.883,69.472 81.214,72.101 81.449,73.390 C81.919,72.242 82.363,71.200 82.569,70.567 C83.312,71.758 84.341,72.528 84.350,72.535 C83.585,73.950 82.201,76.561 82.926,79.757 ZM77.173,86.111 C72.806,83.499 74.560,77.169 77.551,73.653 C77.616,74.540 77.816,75.625 78.077,76.348 C77.631,76.927 76.626,78.744 76.658,80.059 C77.190,79.134 78.111,78.035 78.513,77.455 C78.874,78.226 79.334,78.921 79.887,79.512 C79.237,80.316 77.104,82.774 77.173,86.111 ZM70.383,91.222 C66.590,88.068 70.066,81.847 73.068,79.475 C73.021,79.902 72.915,81.129 73.074,82.109 C72.434,82.735 70.747,84.903 70.747,86.235 C71.522,85.168 72.697,83.966 73.315,83.305 C73.530,84.088 73.855,84.815 74.288,85.460 C73.614,86.021 70.739,88.099 70.383,91.222 ZM67.737,84.360 C67.483,85.182 67.326,86.150 67.247,87.034 C66.495,87.475 64.444,89.082 64.197,90.269 C65.061,89.571 66.515,88.683 67.254,88.210 C67.317,88.915 67.485,89.594 67.760,90.224 C66.621,90.937 63.982,92.301 62.976,94.940 C59.919,91.670 64.648,85.807 67.737,84.360 ZM55.241,97.122 C53.374,94.352 56.255,90.157 61.640,88.226 C61.291,88.890 60.937,89.768 60.740,90.528 C59.941,90.802 57.602,91.888 57.050,93.260 C58.698,92.294 59.989,91.874 60.528,91.675 C60.422,92.420 60.532,93.203 60.626,93.614 C59.759,93.931 56.772,94.804 55.241,97.122 ZM4.711,47.296 C6.368,47.574 6.281,49.406 6.016,51.645 C4.990,51.114 3.706,50.989 2.629,51.427 C2.798,48.713 3.055,47.017 4.711,47.296 ZM6.437,41.110 C8.059,41.571 7.511,43.162 6.784,45.503 C6.073,45.016 5.037,44.643 3.793,44.808 C4.395,42.304 4.814,40.649 6.437,41.110 ZM9.073,35.359 C10.132,35.900 10.032,36.831 8.678,39.514 C7.926,38.877 6.995,38.561 5.990,38.561 C7.057,35.771 7.953,34.786 9.073,35.359 ZM16.918,25.563 C17.944,26.583 16.367,27.926 15.152,29.227 C14.693,28.511 13.997,27.989 13.210,27.716 C14.727,26.155 15.892,24.542 16.918,25.563 ZM21.742,21.973 C22.606,22.985 20.977,24.061 19.504,25.096 C19.234,24.361 18.748,23.740 18.115,23.319 C19.670,22.181 20.878,20.962 21.742,21.973 ZM27.430,19.133 C27.992,20.116 25.706,21.036 24.355,21.773 C24.192,21.088 23.827,20.481 23.322,20.016 C25.221,18.962 26.867,18.149 27.430,19.133 ZM29.442,9.806 C29.716,10.863 32.209,12.195 38.848,12.195 C41.646,12.195 55.165,12.964 55.165,17.800 C55.165,19.430 53.611,20.329 51.898,20.329 C43.253,20.329 40.247,25.376 36.295,23.141 C40.253,22.112 44.861,18.176 51.631,18.176 C52.460,18.176 52.562,17.229 52.054,16.809 C50.646,15.645 47.565,14.083 38.269,14.083 C29.307,14.083 25.474,11.821 25.474,9.527 C25.474,7.968 26.544,7.325 27.598,7.292 C28.524,7.343 29.662,8.099 29.442,9.806 ZM42.072,6.368 C40.887,9.725 36.651,11.431 33.953,10.829 C36.434,10.278 39.292,8.696 40.764,5.933 C41.160,5.974 41.724,6.206 42.072,6.368 ZM72.251,75.819 C71.130,74.986 71.491,72.585 72.372,70.869 C72.830,71.178 73.315,71.451 73.813,71.696 C73.572,72.522 72.822,74.124 72.822,74.124 C73.549,73.785 74.356,72.803 74.747,72.092 C75.311,72.296 75.896,72.437 76.501,72.503 C74.716,76.031 73.372,76.652 72.251,75.819 ZM43.499,89.311 C44.230,86.995 47.064,86.604 49.316,86.285 C48.873,86.893 48.579,87.546 48.460,88.211 C47.549,88.551 45.276,89.110 45.276,89.110 C46.312,89.471 47.945,89.303 48.420,89.227 C48.478,89.826 48.702,90.395 49.081,90.880 C45.028,91.826 42.765,91.637 43.499,89.311 ZM37.272,88.874 C37.847,87.413 39.309,86.727 43.288,86.947 C42.756,87.476 42.377,88.082 42.142,88.717 C41.141,88.926 39.013,89.071 39.013,89.071 C39.736,89.534 41.410,89.705 41.910,89.710 C41.899,90.448 41.981,91.021 42.207,91.466 C37.117,91.737 36.839,89.973 37.272,88.874 ZM4.081,53.663 C6.071,53.663 6.212,56.291 6.406,58.260 C5.241,57.663 3.628,57.585 2.583,58.177 C2.391,55.792 2.092,53.663 4.081,53.663 ZM35.548,15.949 C36.870,15.804 39.094,15.067 39.208,16.295 C39.315,17.440 37.074,17.356 35.925,17.606 C36.009,16.982 35.791,16.389 35.548,15.949 ZM53.402,21.615 C53.411,21.618 53.417,21.626 53.427,21.628 C54.303,21.921 55.787,22.687 57.137,23.234 C56.803,22.486 55.484,21.433 54.714,21.077 C55.176,20.797 55.573,20.454 55.882,20.055 C60.248,22.470 60.937,25.074 58.878,28.056 C56.294,23.958 52.380,22.314 49.264,22.002 C50.073,21.891 52.325,21.615 53.402,21.615 ZM47.247,8.389 C47.994,8.389 48.833,7.642 48.513,6.618 C50.780,6.813 53.832,7.648 55.091,8.206 C52.529,8.206 48.632,9.786 46.979,9.786 C44.073,9.786 44.308,7.174 45.956,6.739 C45.686,7.704 46.499,8.389 47.247,8.389 ZM16.266,33.399 C17.110,33.962 16.593,35.194 15.542,36.786 C14.988,36.186 14.266,35.769 13.486,35.613 C14.464,33.728 15.423,32.836 16.266,33.399 ZM44.956,16.678 C44.840,17.574 42.774,17.111 41.645,17.111 C41.721,16.605 41.724,16.155 41.630,15.653 C43.290,15.690 45.071,15.781 44.956,16.678 ZM39.501,19.960 C39.626,20.677 38.327,20.896 36.525,21.515 C36.620,21.020 36.481,20.417 36.328,20.057 C37.685,19.648 39.376,19.243 39.501,19.960 ZM76.675,63.669 C75.716,63.993 73.557,64.258 70.584,62.969 C71.753,64.377 74.655,65.397 77.292,64.544 C77.850,65.134 78.991,65.693 79.860,65.758 C78.486,66.898 76.254,67.258 73.625,66.643 C74.471,67.486 77.201,68.348 79.543,67.218 C79.462,67.378 78.726,69.932 76.169,69.932 C73.089,69.932 68.695,65.241 64.421,56.625 C63.141,58.401 61.063,58.743 60.052,58.397 C61.584,56.998 62.281,55.285 62.277,53.706 C62.272,51.267 60.582,49.062 58.052,49.048 C58.504,48.181 59.318,47.922 60.143,47.886 C61.961,47.886 62.795,48.702 63.776,51.016 C64.361,49.450 63.376,47.713 62.374,47.055 C62.679,46.848 62.983,46.747 63.270,46.747 C64.925,46.747 66.303,49.513 65.432,54.530 C69.226,60.532 73.005,62.652 76.019,61.510 C76.026,61.507 76.032,61.506 76.039,61.503 C76.039,61.503 76.090,62.968 76.675,63.669 ZM68.322,67.217 C69.361,68.421 70.696,69.576 71.024,69.847 C69.306,70.862 67.161,68.944 68.322,67.217 ZM10.362,48.774 C11.969,49.101 11.802,50.755 11.821,52.212 C10.893,51.815 9.531,51.753 8.501,52.216 C8.501,49.601 8.607,48.416 10.362,48.774 ZM71.643,37.663 C70.087,38.471 69.024,37.276 67.770,34.655 C68.265,34.616 68.727,34.473 69.146,34.245 C69.816,34.912 70.943,36.292 70.943,36.292 C71.052,35.724 70.529,34.451 69.954,33.652 C70.381,33.235 70.705,32.719 70.899,32.143 C73.229,35.319 73.368,36.769 71.643,37.663 ZM74.669,48.447 C72.399,48.853 72.362,46.286 71.979,44.365 C72.251,44.446 72.787,44.578 73.431,44.438 C73.761,45.192 74.438,47.144 74.438,47.144 C74.712,46.296 74.573,44.943 74.390,44.141 C74.909,43.903 75.374,43.552 75.741,43.106 C76.595,46.296 76.940,48.040 74.669,48.447 ZM10.149,54.385 C11.755,54.385 12.295,55.901 12.463,57.682 C11.050,57.491 9.806,57.980 8.979,58.578 C8.294,55.433 8.543,54.385 10.149,54.385 ZM38.390,26.133 C41.396,26.133 44.793,24.420 48.042,24.420 C53.139,24.420 56.660,28.551 58.369,31.343 C58.377,31.345 59.499,30.968 60.385,30.086 C69.017,37.455 71.412,47.917 69.887,56.154 C69.055,55.322 68.390,54.484 68.002,53.960 C68.955,48.016 66.553,44.266 63.272,44.266 C63.272,44.266 63.258,44.266 63.258,44.266 C62.215,44.264 61.222,44.690 60.429,45.412 C58.098,45.231 54.445,47.205 55.858,51.243 C58.975,50.760 59.729,52.290 59.783,53.717 C59.769,54.740 59.288,56.872 56.925,58.493 C59.100,61.572 62.274,61.073 63.888,60.040 C64.722,61.615 65.667,63.625 66.669,65.118 C66.315,65.780 66.066,66.144 65.581,66.847 C64.100,66.927 60.843,66.862 58.679,65.242 C58.098,63.172 56.365,58.475 52.497,58.475 C50.978,58.475 49.681,59.398 49.027,60.762 C45.670,62.091 45.357,65.896 47.341,67.563 C50.931,65.397 53.045,68.499 50.764,73.246 C53.421,75.033 55.926,74.097 57.330,72.163 C57.939,72.621 58.583,73.092 59.267,73.534 C54.559,77.115 48.491,79.259 42.297,79.259 C26.052,79.259 14.291,65.833 14.291,51.367 C14.291,33.993 29.260,25.682 34.207,24.678 C35.263,25.578 36.637,26.133 38.390,26.133 ZM61.877,23.375 C65.462,25.293 66.545,27.103 65.173,28.469 C64.423,29.216 63.292,29.590 61.382,27.689 C61.565,27.261 61.719,26.793 61.828,26.295 C62.722,26.693 64.054,27.491 64.054,27.491 C63.912,26.821 63.270,26.119 61.982,25.173 C61.988,24.451 61.963,23.794 61.877,23.375 ZM62.198,72.342 C60.498,71.532 57.614,69.642 56.496,68.839 C55.770,70.760 54.705,71.668 53.580,71.868 C55.519,67.361 52.106,63.338 48.511,64.695 C48.786,63.151 50.994,61.841 53.862,64.254 C53.862,63.104 52.795,62.107 51.323,61.765 C52.356,59.846 55.457,61.265 56.606,66.846 C57.183,67.420 61.328,69.622 64.893,69.439 C64.062,70.467 63.161,71.436 62.198,72.342 ZM73.605,42.853 C71.793,43.484 71.099,41.883 70.320,39.366 C70.911,39.466 71.421,39.314 71.760,39.207 C72.273,39.915 73.216,41.683 73.216,41.683 C73.338,41.010 73.135,39.840 72.672,38.792 C73.156,38.478 73.556,38.043 73.849,37.540 C75.562,40.745 75.360,42.242 73.605,42.853 ZM68.875,32.620 C67.528,33.718 66.276,32.995 64.492,30.538 C64.970,30.427 65.405,30.220 65.782,29.937 C66.558,30.466 67.915,31.631 67.915,31.631 C67.915,31.031 66.999,29.778 66.483,29.222 C66.851,28.743 67.112,28.185 67.222,27.586 C70.488,30.454 69.753,31.905 68.875,32.620 ZM66.348,24.397 C65.701,23.859 62.518,21.036 56.599,18.397 C56.632,18.201 56.666,17.800 56.615,17.187 C57.895,17.321 59.403,17.776 60.668,18.123 C60.308,17.394 58.416,16.467 56.278,16.119 C56.115,15.772 55.782,15.223 55.234,14.678 C63.004,14.940 68.130,20.792 66.348,24.397 ZM11.236,64.993 C9.473,63.754 8.690,60.851 11.068,60.087 C13.148,59.419 13.872,62.025 14.179,63.014 C12.882,63.197 11.938,63.915 11.236,64.993 ZM73.733,59.675 C71.240,59.050 72.388,56.167 72.590,54.883 C73.002,55.194 73.465,55.401 73.948,55.506 C74.040,56.169 74.147,57.601 74.147,57.601 C74.542,57.209 74.882,56.125 74.949,55.588 C75.473,55.559 76.002,55.421 76.480,55.171 C76.354,57.148 76.225,60.300 73.733,59.675 ZM74.607,54.096 C72.461,53.998 72.681,51.660 72.745,49.583 C73.195,49.819 73.683,49.951 74.168,49.964 C74.340,50.466 74.721,51.976 74.721,51.976 C74.998,51.488 75.192,50.401 75.165,49.865 C75.695,49.748 76.204,49.523 76.639,49.196 C77.018,52.735 76.750,54.193 74.607,54.096 ZM13.361,38.187 C14.542,38.749 13.994,40.308 13.503,41.363 C12.774,40.779 11.892,40.461 10.993,40.455 C11.629,38.718 12.179,37.624 13.361,38.187 ZM11.515,43.054 C12.804,43.505 12.588,44.881 12.141,46.819 C11.441,46.415 10.439,46.093 9.184,46.261 C9.625,43.396 10.226,42.604 11.515,43.054 ZM13.784,64.992 C15.215,64.397 15.937,66.860 16.729,67.919 C15.682,68.003 14.841,68.675 14.437,69.601 C13.927,68.767 11.981,65.743 13.784,64.992 ZM16.191,69.669 C17.282,68.905 18.503,69.981 19.993,72.074 C18.898,72.324 18.089,73.183 17.815,74.230 C15.747,72.320 15.100,70.433 16.191,69.669 ZM19.678,73.879 C20.625,72.936 22.197,73.881 23.961,75.639 C23.615,75.782 23.311,75.987 23.048,76.233 C22.496,76.010 21.512,75.611 21.512,75.611 C21.651,76.187 22.143,76.789 22.436,77.024 C22.219,77.416 22.089,77.851 22.052,78.302 C18.926,76.093 18.724,74.828 19.678,73.879 ZM23.751,77.715 C24.626,76.146 26.575,77.068 28.515,78.461 C28.161,78.684 27.866,78.968 27.629,79.296 C27.100,79.296 26.114,79.011 26.114,79.011 C26.334,79.555 26.714,79.860 27.170,80.183 C27.055,80.525 26.991,80.942 27.006,81.616 C24.485,80.459 22.921,79.203 23.751,77.715 ZM28.656,80.464 C29.464,78.775 31.172,79.585 33.529,80.462 C33.196,80.769 32.932,81.133 32.745,81.534 C32.126,81.534 31.157,81.506 31.157,81.506 C31.359,81.878 32.112,82.375 32.445,82.485 C32.395,83.017 32.437,83.653 32.528,83.965 C29.746,83.468 27.847,82.153 28.656,80.464 ZM33.950,82.579 C34.396,80.396 36.980,81.175 38.743,81.531 C38.446,81.921 38.246,82.357 38.143,82.814 C37.597,82.944 36.471,83.052 36.471,83.052 C36.844,83.423 37.664,83.757 38.061,83.813 C38.092,84.299 38.223,84.784 38.455,85.228 C34.991,85.100 33.585,84.366 33.950,82.579 ZM39.546,83.609 C39.595,81.644 41.411,81.519 44.015,81.693 C43.772,82.146 43.640,82.639 43.637,83.132 C43.065,83.400 42.197,83.658 42.197,83.658 C42.680,84.006 43.410,84.139 43.764,84.126 C43.888,84.587 44.101,85.025 44.399,85.405 C41.474,85.807 39.497,85.573 39.546,83.609 ZM45.154,83.500 C44.997,81.504 46.876,81.254 49.276,80.935 C49.163,81.277 49.051,81.911 49.162,82.476 C48.692,82.813 47.618,83.285 47.618,83.285 C48.035,83.465 49.029,83.527 49.442,83.439 C49.627,83.858 49.888,84.236 50.219,84.552 C47.502,85.417 45.310,85.497 45.154,83.500 ZM50.694,82.524 C50.149,80.381 52.601,79.935 54.337,79.282 C54.235,79.960 54.393,80.474 54.518,80.837 C54.107,81.246 52.977,81.967 52.977,81.967 C53.712,82.112 54.523,81.917 54.971,81.733 C55.230,82.106 55.556,82.425 55.939,82.672 C53.656,83.905 51.239,84.667 50.694,82.524 ZM56.109,80.722 C55.003,78.946 57.069,77.668 59.047,76.752 C59.078,77.299 59.239,77.812 59.496,78.269 C59.089,78.787 58.114,79.695 58.114,79.695 C58.713,79.695 59.668,79.346 60.095,79.073 C60.419,79.393 60.802,79.648 61.226,79.823 C58.917,81.566 57.216,82.498 56.109,80.722 ZM61.134,77.990 C59.746,76.608 60.890,74.877 63.219,73.463 C63.226,73.491 63.438,74.226 63.931,74.868 C63.582,75.454 62.813,76.521 62.813,76.521 C63.599,76.316 64.291,75.898 64.669,75.549 C65.051,75.810 65.479,76.002 65.932,76.105 C64.116,78.182 62.521,79.372 61.134,77.990 ZM65.264,74.115 C63.742,72.772 65.437,70.829 66.773,69.499 C66.981,69.992 67.297,70.418 67.694,70.754 C67.421,71.431 66.935,72.518 66.935,72.518 C67.545,72.276 68.251,71.678 68.549,71.287 C68.987,71.487 69.458,71.607 69.936,71.630 C68.516,74.004 66.874,75.537 65.264,74.115 ZM80.015,43.946 C77.613,43.946 76.564,40.948 75.737,38.119 C76.376,38.463 77.037,38.640 77.677,38.644 C77.678,38.644 77.678,38.644 77.678,38.644 C78.145,39.279 78.941,40.886 78.941,40.886 C79.023,40.250 78.858,38.985 78.677,38.477 C79.310,38.260 79.858,37.827 80.233,37.213 C81.794,40.948 82.514,43.946 80.015,43.946 ZM78.007,37.616 C75.595,38.076 74.148,34.829 72.880,32.466 C73.333,32.613 74.184,32.777 74.873,32.636 C75.577,33.338 76.655,34.895 76.655,34.895 C76.655,34.165 76.329,33.196 75.821,32.286 C76.406,31.949 76.866,31.414 77.119,30.727 C79.429,34.617 80.322,37.174 78.007,37.616 ZM75.124,31.524 C73.119,32.372 71.506,30.719 69.613,28.002 C70.363,28.017 70.921,27.862 71.373,27.610 C72.023,28.084 73.409,29.411 73.409,29.411 C73.409,28.770 72.467,27.364 72.161,26.991 C72.616,26.492 72.918,25.839 73.026,25.097 C76.133,28.481 77.003,30.730 75.124,31.524 ZM71.418,26.361 C70.534,27.376 68.860,26.914 68.349,26.594 C68.484,26.220 68.677,25.598 68.803,24.796 C69.345,25.084 70.381,25.689 70.381,25.689 C70.269,25.121 69.424,23.991 68.918,23.511 C68.921,22.424 68.788,21.474 68.517,20.614 C72.320,23.687 72.618,24.983 71.418,26.361 ZM70.465,17.204 C63.672,17.204 60.541,12.466 53.032,13.199 C51.627,12.498 49.975,11.829 48.440,11.076 C50.157,10.686 52.064,9.707 55.081,9.707 C63.159,9.707 66.428,14.741 75.458,14.741 C75.156,15.374 74.069,17.204 70.465,17.204 ZM46.802,11.918 C44.009,11.415 41.693,11.193 38.713,11.193 C40.309,10.583 41.604,9.541 42.468,7.963 C43.177,9.551 44.966,10.963 46.802,11.918 ZM34.079,21.133 C34.465,22.246 32.079,22.704 31.242,23.064 C31.186,22.521 30.993,21.888 30.672,21.457 C31.752,20.958 33.725,20.111 34.079,21.133 ZM28.696,23.101 C29.213,23.883 27.851,24.719 26.483,25.395 C26.279,24.839 25.923,24.367 25.463,24.008 C26.614,23.203 28.157,22.286 28.696,23.101 ZM23.974,25.989 C24.592,26.849 23.383,27.551 22.215,28.522 C21.936,27.941 21.499,27.460 20.957,27.129 C21.984,26.186 23.436,25.240 23.974,25.989 ZM19.756,29.300 C20.649,30.033 19.521,31.296 18.586,32.276 C18.112,31.545 17.409,31.148 16.942,30.977 C17.790,30.040 18.863,28.567 19.756,29.300 ZM4.568,60.258 C6.749,60.149 7.997,62.502 7.345,65.272 C6.343,64.107 4.931,63.310 3.308,63.408 C2.884,62.426 2.568,60.358 4.568,60.258 ZM9.388,66.104 C10.561,65.915 11.592,67.408 12.882,69.948 C11.520,69.716 10.657,69.885 9.768,70.783 C8.294,68.219 7.684,66.379 9.388,66.104 ZM11.786,71.353 C13.144,71.069 14.886,72.616 16.293,74.742 C15.340,74.549 13.696,74.986 13.132,76.079 C10.612,73.099 10.428,71.636 11.786,71.353 ZM15.278,76.264 C17.282,75.707 19.428,77.885 20.615,79.067 C20.079,79.120 19.564,79.254 19.108,79.473 C18.269,79.009 16.501,77.850 16.501,77.850 C16.812,78.600 17.891,79.709 18.253,80.044 C17.926,80.339 17.664,80.691 17.505,81.102 C14.557,78.572 13.457,76.771 15.278,76.264 ZM19.728,80.823 C20.970,80.119 23.342,80.786 25.621,82.565 C25.021,82.732 24.478,82.994 24.032,83.344 C23.216,83.056 21.071,81.914 21.071,81.914 C21.510,82.704 22.918,83.814 23.340,84.087 C23.058,84.488 22.877,84.945 22.817,85.449 C18.347,82.860 18.253,81.660 19.728,80.823 ZM24.997,84.485 C26.606,83.258 28.793,84.059 31.358,85.145 C30.745,85.446 30.214,85.838 29.811,86.314 C28.979,86.197 26.865,85.558 26.865,85.558 C27.225,86.070 28.601,86.825 29.272,87.170 C29.067,87.606 28.853,88.302 28.951,88.786 C24.234,87.257 23.398,85.703 24.997,84.485 ZM30.992,87.267 C32.090,85.868 34.068,85.854 37.341,86.611 C36.763,87.038 36.298,87.551 35.976,88.124 C34.866,88.124 32.977,87.944 32.977,87.944 C33.475,88.440 35.036,88.958 35.580,89.064 C35.499,89.365 35.449,89.672 35.445,89.982 C35.443,90.260 35.494,90.538 35.569,90.810 C30.435,90.173 29.715,88.894 30.992,87.267 ZM49.893,88.878 C49.893,86.680 52.482,85.371 55.380,84.515 C55.041,85.194 54.858,85.893 54.850,86.573 C53.988,87.120 51.682,88.064 51.682,88.064 C52.607,88.271 54.487,87.755 54.995,87.579 C55.167,88.159 55.507,88.672 55.980,89.080 C52.842,90.532 49.893,91.075 49.893,88.878 ZM56.350,86.597 C56.305,85.355 57.101,83.624 60.728,81.907 C60.570,82.403 60.358,83.281 60.535,84.019 C59.710,84.710 57.926,85.896 57.926,85.896 C58.781,85.896 59.997,85.480 60.856,84.982 C61.203,85.714 61.835,86.147 62.080,86.287 C58.361,89.027 56.427,88.754 56.350,86.597 ZM62.094,84.064 C61.407,82.314 63.333,79.944 65.712,78.319 C65.556,79.180 65.711,80.032 65.854,80.450 C64.750,81.714 63.410,82.870 63.410,82.870 C64.350,82.720 65.614,81.998 66.335,81.344 C66.684,81.925 67.275,82.234 67.762,82.407 C64.685,85.470 62.781,85.813 62.094,84.064 ZM67.459,80.297 C66.507,78.763 67.842,75.968 70.058,73.905 C70.068,74.665 70.219,75.374 70.529,75.975 C70.529,75.975 69.679,77.267 68.642,78.690 C69.580,78.447 70.586,77.391 71.145,76.804 C71.566,77.226 72.104,77.520 72.716,77.630 C70.066,81.270 68.308,81.666 67.459,80.297 ZM78.261,64.087 C76.517,62.886 76.987,59.814 77.813,56.595 C78.195,57.291 78.677,57.848 79.241,58.207 C79.241,58.941 79.219,60.687 79.219,60.687 C79.695,60.089 80.084,59.112 80.182,58.608 C81.026,58.863 81.760,58.588 82.196,58.353 C81.496,63.416 80.058,65.324 78.261,64.087 ZM80.004,57.489 C77.771,56.404 78.051,53.001 78.183,50.263 C78.683,50.864 79.265,51.284 79.885,51.534 C80.033,52.212 80.319,54.016 80.329,54.016 C80.592,53.538 80.872,52.320 80.879,51.774 C81.653,51.862 82.287,51.578 82.807,51.169 C82.968,56.119 82.060,58.489 80.004,57.489 ZM80.406,50.692 C78.271,50.022 77.881,47.200 77.447,43.891 C78.038,44.388 78.678,44.725 79.327,44.864 C79.625,45.618 80.200,47.433 80.200,47.433 C80.404,46.609 80.445,45.482 80.347,44.905 C81.019,44.831 81.635,44.515 82.118,43.985 C83.297,49.009 82.635,51.391 80.406,50.692 ZM81.542,37.860 C82.647,38.701 84.769,39.934 87.524,40.054 C88.527,44.175 91.239,46.140 92.174,46.765 C88.938,48.292 83.402,45.502 81.542,37.860 ZM87.713,39.063 C82.608,39.063 79.980,34.025 78.602,31.337 C79.827,31.968 82.091,32.808 84.713,32.522 C86.147,35.599 88.401,37.283 90.561,38.230 C89.971,38.656 89.075,39.063 87.713,39.063 ZM83.652,31.594 C78.349,31.594 74.981,25.881 74.546,25.346 C75.678,25.709 77.770,26.291 80.674,25.551 C82.436,28.240 84.941,29.409 87.577,30.236 C87.041,30.768 85.708,31.594 83.652,31.594 ZM78.048,24.908 C74.058,24.908 71.479,21.962 70.645,21.185 C69.980,20.565 69.294,19.967 68.589,19.392 C69.172,19.459 70.238,19.539 71.228,19.488 C73.193,21.445 75.906,23.266 77.987,22.878 C75.781,22.065 74.017,20.843 72.514,19.346 C73.185,19.233 74.058,19.056 74.811,18.647 C77.910,21.317 81.698,22.358 83.285,22.700 C82.831,23.386 81.402,24.908 78.048,24.908 ZM65.454,10.073 C61.125,10.073 55.007,5.055 47.081,5.055 C45.435,5.055 44.230,5.771 43.660,6.848 C42.977,4.601 44.699,2.476 48.189,2.476 C54.574,2.476 60.897,6.544 66.010,6.604 C67.437,6.618 68.822,6.236 69.989,5.314 C69.991,5.372 69.991,5.431 69.991,5.488 C69.947,8.238 68.218,10.073 65.454,10.073 ZM33.362,17.146 C33.731,18.385 31.312,18.619 29.993,19.181 C29.937,18.533 29.694,17.949 29.308,17.468 C30.621,17.138 32.995,15.911 33.362,17.146 ZM12.587,30.151 C13.884,30.890 12.870,32.126 11.461,34.139 C10.871,33.432 10.044,32.962 9.153,32.812 C10.273,31.203 11.218,29.369 12.587,30.151 ZM7.850,70.358 C6.713,69.981 5.805,70.320 5.293,70.602 C4.465,68.529 3.565,66.769 2.890,65.619 C5.374,64.313 7.339,68.920 7.850,70.358 ZM11.307,76.112 C10.252,75.922 9.340,76.271 8.742,76.711 C8.737,76.715 8.732,76.721 8.726,76.725 C7.411,74.830 6.165,73.271 5.421,72.425 C7.664,69.983 10.659,74.362 11.307,76.112 ZM15.787,81.502 C14.542,81.426 13.647,81.940 13.139,82.377 C12.817,82.012 10.846,79.866 8.992,78.651 C10.330,76.327 13.524,77.902 15.787,81.502 ZM20.804,85.862 C19.819,86.057 18.912,86.666 18.452,87.237 C18.144,86.990 15.920,85.215 13.570,84.270 C14.323,82.159 18.018,82.564 20.804,85.862 ZM26.747,89.432 C25.988,89.690 25.111,90.111 24.463,91.117 C23.161,90.424 21.103,89.347 19.182,89.102 C20.226,85.760 24.571,87.624 26.747,89.432 ZM33.541,91.889 C32.376,92.418 31.564,93.403 31.264,94.018 C31.018,93.935 27.898,92.855 25.367,93.019 C25.706,89.783 30.717,90.329 33.541,91.889 ZM40.371,92.910 C39.078,93.837 38.442,94.964 38.204,95.711 C38.204,95.711 38.195,95.735 38.195,95.735 C37.080,95.588 34.600,95.303 32.391,95.866 C32.391,92.607 37.043,92.247 40.371,92.910 ZM47.646,92.618 C47.241,93.031 46.876,93.572 46.565,94.008 C45.763,94.018 43.243,94.258 42.542,95.098 C44.026,94.975 44.981,94.944 46.065,95.020 C45.907,95.434 45.804,95.862 45.749,96.304 C45.748,96.308 45.748,96.311 45.748,96.314 C43.788,96.351 41.208,96.613 39.540,97.503 C39.125,94.820 42.351,92.465 47.646,92.618 ZM54.840,91.033 C54.414,91.574 53.953,92.403 53.687,92.912 C52.789,93.139 50.362,93.863 49.723,94.875 C50.892,94.531 52.286,94.188 53.325,94.044 C53.232,94.445 53.167,95.022 53.205,95.627 C51.652,95.880 49.163,96.566 47.429,98.035 C46.085,93.580 51.887,91.530 54.840,91.033 ZM83.799,52.000 C84.562,53.236 86.209,55.417 89.057,56.507 C88.480,61.171 90.306,63.668 90.883,64.465 C86.167,64.741 82.816,59.160 83.799,52.000 ZM83.248,44.638 C84.252,45.757 86.194,47.465 88.915,48.027 C89.011,49.304 89.315,52.745 92.348,55.764 C88.026,56.665 83.787,52.156 83.248,44.638 Z" id="path-1" class="cls-2" fill-rule="evenodd"/>
</svg>
