<svg xmlns="http://www.w3.org/2000/svg" width="96" height="101" preserveAspectRatio="xMidYMid">
  <path fill-rule="evenodd" d="M91.35 49.33c1-.15 3.1-.93 4.15-2.97-3.37-1.97-4.56-3.5-5.34-5.45.96-.3 3.08-1.4 3.86-3.6-3.52-1.1-5.3-2.4-6.48-4.3 1.48-.7 2.8-2.1 3.23-4.1-3.4-.8-5.7-1.6-7.2-3.3 1.3-.9 2.44-2.7 2.6-4.5-4.33-.8-6.92-1.7-9.47-3.7.73-.8 1.63-2.4 1.63-4.7-3.45-.1-6.28-.4-8.65-1.3 4.02-3.1 2.96-8.4 1.36-9.7C66.47 8.3 58.66 0 48.17 0c-2.9 0-5.32 1.4-6.47 3.56-1.68-.6-2.7.27-2.98.9-1 2.53-3.52 4.1-7 4.1-.08-2.06-1.9-3.75-4.13-3.75-2.7 0-4.7 2.1-4.7 4.8s2.2 4.7 5.2 5.7C8.8 21.8-3.4 41.7.8 63.8c0 0-.43.7-.64 1.3 0 0 2.02 3.8 2.93 6.2 0 0-.3.5-.5 1.2 1.4 2 2.9 4.13 3.9 5.44 0 0-.3.73-.2 1.56 1.7 1.05 4.5 4.1 4.7 4.34 0 0-.3 1.06.1 1.9 2.6 1 5.2 3.1 5.4 3.3-.1.94.1 1.7.5 2.14 3.3.36 5.5 1.83 5.7 1.93 0 0 0 1.5.8 2.2 3.9 0 6.2.9 6.2.9.1.8.4 1.8 1.3 2.4 3.2-.9 5.1-.5 5.8-.4.1.9.8 2.1 2 2.3 2.2-1.3 4.2-1.5 5.9-1.6.3 1 1.1 1.9 2.23 2.2 1.07-.6 2.6-2.1 5.7-2.8.4.6 1.7 2.1 3 2.1 1.7-2.6 2.5-3.1 4.86-4h.02c.44.6 1.63 1.8 3.5 1.8 1.22-3.2 2-3.8 4.1-5.1.55.6 2.45 1.8 4 1.4.42-3.9 1.02-4.5 2.94-6.3.7.5 2.8 1.3 4.5.9-.7-4.1.32-5.5 1.5-7 .7.4 3.1.9 4.7.1-1.67-3.8-.6-5.8-.08-7 .6.2 3.3.5 4.62-.5-2-4-1.3-6.8-1.2-7.54.3.04 3.67.2 4.57-1.8-3-2.8-2.8-6.66-2.8-6.7h.1c.97 0 3.2-.4 4.4-2.3-3-2.6-3.83-4.35-4.3-6.54zm-8.3 10c.52 1.36 1.86 4 4.56 5.44-.3 1.23-1.2 4.53.2 8.06-4.5-.6-7.1-5.9-4.7-13.5zm-.12 20.43c-3.16-1.07-5.87-6.65-1.97-13.3.2 1.03.52 2.02.95 2.93 0 0-.7 2.7-.4 4 .5-1.2.9-2.2 1.1-2.9.8 1.2 1.8 1.9 1.8 1.9-.7 1.4-2.1 4-1.4 7.2zm-5.76 6.35c-4.36-2.6-2.6-8.9.38-12.4.07.9.27 2 .53 2.7-.45.6-1.45 2.4-1.42 3.7.53-.9 1.45-2 1.85-2.6.4.8.9 1.5 1.4 2.1-.6.8-2.8 3.3-2.7 6.6zm-6.8 5.2c-3.78-3.1-.3-9.3 2.7-11.7-.05.5-.15 1.7 0 2.7-.64.7-2.32 2.8-2.32 4.2.77-1 1.95-2.2 2.56-2.9.3.8.6 1.6 1 2.2-.7.6-3.5 2.7-3.9 5.8zm-2.63-6.8c-.26.8-.4 1.8-.5 2.7-.74.5-2.8 2.1-3.04 3.3.86-.7 2.3-1.6 3.05-2 .07.8.23 1.4.5 2.1-1.13.7-3.77 2.1-4.77 4.7-3.06-3.2 1.67-9.1 4.76-10.6zm-12.5 12.7c-1.87-2.7 1.02-6.9 6.4-8.9-.35.7-.7 1.6-.9 2.3-.8.3-3.14 1.4-3.7 2.8 1.66-1 2.95-1.4 3.5-1.6-.12.8 0 1.5.1 2-.88.4-3.87 1.2-5.4 3.5zM4.7 47.3c1.67.27 1.58 2.1 1.32 4.35-1.03-.54-2.3-.66-3.4-.22.18-2.72.44-4.4 2.1-4.13zm1.74-6.2c1.62.47 1.07 2.06.34 4.4-.7-.48-1.74-.86-3-.7.6-2.5 1.03-4.15 2.66-3.7zm2.63-5.74c1.06.54.96 1.47-.4 4.15-.74-.6-1.67-.9-2.67-.9 1.04-2.8 1.93-3.7 3.05-3.2zm7.85-9.8c1.02 1.02-.55 2.37-1.77 3.67-.46-.72-1.15-1.24-1.94-1.5 1.6-1.57 2.7-3.2 3.8-2.17zm4.82-3.6c.87 1.02-.76 2.1-2.24 3.14-.27-.74-.75-1.36-1.4-1.78 1.57-1.14 2.78-2.36 3.64-1.35zm5.7-2.83c.55 1-1.73 1.9-3.1 2.64-.15-.68-.5-1.3-1.02-1.75 1.9-1.06 3.55-1.87 4.1-.9zm2-9.32c.28 1.1 2.77 2.4 9.4 2.4 2.8 0 16.32.8 16.32 5.6 0 1.7-1.55 2.6-3.26 2.6-8.65 0-11.65 5.1-15.6 2.8 3.95-1 8.56-4.9 15.33-4.9.83 0 .93-.9.42-1.3-1.4-1.1-4.48-2.7-13.78-2.7-8.96 0-12.8-2.2-12.8-4.5 0-1.5 1.07-2.2 2.13-2.2.92.1 2.06.8 1.84 2.5zm12.63-3.4c-1.18 3.4-5.42 5.1-8.12 4.5 2.48-.5 5.34-2.1 6.8-4.9.4.1.97.3 1.32.5zm30.18 69.5c-1.12-.8-.76-3.2.12-4.9.46.3.94.6 1.44.9-.2.9-.9 2.5-.9 2.5.8-.3 1.6-1.3 2-2 .6.2 1.2.4 1.8.4-1.7 3.6-3.1 4.2-4.2 3.3zM43.5 89.4c.73-2.33 3.56-2.73 5.82-3.04-.45.6-.74 1.2-.86 1.9-.9.3-3.18.9-3.18.9 1.03.3 2.66.2 3.14.1.06.6.28 1.13.66 1.6-4.05.97-6.3.78-5.58-1.55zm-6.23-.46c.58-1.46 2.04-2.14 6.02-1.92-.6.53-1 1.13-1.2 1.77-1 .2-3.2.3-3.2.3.7.4 2.4.6 2.9.6 0 .8 0 1.4.3 1.8-5.1.3-5.4-1.5-5-2.6zM4.07 53.7c2 0 2.14 2.6 2.34 4.6-1.1-.6-2.7-.7-3.8-.1-.2-2.4-.5-4.5 1.5-4.5zm31.48-37.73c1.32-.15 3.54-.88 3.66.35.1 1.15-2.1 1.07-3.2 1.3.1-.6-.1-1.2-.3-1.64zM53.4 21.6c0 .02.02.03.03.03.87.3 2.36 1.06 3.7 1.6-.33-.74-1.65-1.8-2.42-2.15.5-.28.9-.63 1.2-1.02 4.4 2.4 5.1 5 3 8-2.6-4.1-6.5-5.75-9.6-6.06.8-.1 3.1-.4 4.2-.4zM47.25 8.4c.74 0 1.58-.76 1.26-1.78 2.3.2 5.4 1.03 6.6 1.6-2.5 0-6.4 1.57-8.1 1.57-2.9 0-2.6-2.7-1-3.1-.2.9.6 1.6 1.3 1.6zm-30.98 25c.84.56.32 1.8-.73 3.4-.55-.6-1.27-1.03-2.05-1.2.9-1.87 1.9-2.76 2.7-2.2zm28.7-16.72c-.13.9-2.2.43-3.32.43.07-.5.07-.9-.02-1.4 1.66.1 3.44.2 3.33 1.1zm-5.47 3.28c.13.72-1.17.94-2.98 1.55.1-.4-.04-1-.2-1.4 1.37-.4 3.06-.8 3.18-.1zm37.17 43.7c-.95.33-3.1.6-6.1-.7 1.18 1.42 4.1 2.44 6.72 1.58.5.6 1.7 1.15 2.5 1.22-1.4 1.14-3.6 1.5-6.3.88.8.85 3.5 1.7 5.9.58-.1.16-.8 2.7-3.4 2.7-3.1 0-7.5-4.68-11.8-13.3-1.2 1.78-3.3 2.12-4.3 1.78 1.5-1.4 2.2-3.12 2.2-4.7 0-2.43-1.7-4.64-4.3-4.65.4-.87 1.2-1.13 2.1-1.16 1.8 0 2.6.8 3.6 3.1.5-1.6-.4-3.3-1.4-4 .3-.2.6-.3.9-.3 1.6 0 3 2.7 2.1 7.8 3.8 6 7.5 8.1 10.6 7 0 0 0 1.4.6 2.1zm-8.35 3.56c1.04 1.2 2.38 2.36 2.7 2.63-1.7 1-3.86-.9-2.7-2.63zM10.36 48.77c1.6.33 1.44 1.98 1.46 3.44-.93-.4-2.3-.4-3.32.1 0-2.6.1-3.8 1.86-3.4zm61.28-11.1c-1.55.8-2.62-.4-3.87-3.02.5-.03.96-.18 1.38-.4.67.66 1.8 2.04 1.8 2.04.1-.6-.42-1.9-1-2.7.43-.4.75-1 .95-1.5 2.33 3.1 2.47 4.6.74 5.5zm3.03 10.78c-2.27.4-2.3-2.16-2.7-4.1.28.1.82.23 1.46.1.33.74 1 2.7 1 2.7.28-.85.14-2.2-.04-3 .5-.25.9-.6 1.3-1.04.8 3.2 1.2 5-1.1 5.4zm-64.52 5.93c1.6 0 2.14 1.52 2.3 3.3-1.4-.2-2.64.3-3.47.9-.7-3.15-.44-4.2 1.17-4.2zM38.4 26.13c3 0 6.4-1.7 9.64-1.7 5.1 0 8.62 4.12 10.33 6.9 0 .02 1.13-.36 2.02-1.24 8.6 7.3 11 17.8 9.5 26-.9-.9-1.5-1.7-1.9-2.2.9-6-1.5-9.7-4.8-9.7-1.1 0-2.1.4-2.9 1.1-2.4-.2-6 1.8-4.6 5.8 3.1-.5 3.8 1 3.9 2.5 0 1-.5 3.1-2.9 4.7 2.2 3 5.3 2.5 6.9 1.5.8 1.6 1.8 3.6 2.8 5.1-.4.6-.6 1-1.1 1.7-1.5 0-4.7 0-6.9-1.6-.6-2.1-2.3-6.8-6.2-6.8-1.5 0-2.8.9-3.5 2.3-3.3 1.3-3.7 5.1-1.7 6.8 3.6-2.2 5.7.9 3.4 5.7 2.6 1.7 5.2.8 6.6-1.1.6.4 1.2.9 1.9 1.3-4.6 3.6-10.7 5.8-16.8 5.8-16.3 0-28-13.4-28-27.9C14.1 33.8 29 25.5 34 24.5c1 .9 2.4 1.4 4.2 1.4zm23.48-2.75c3.58 1.9 4.66 3.72 3.3 5.1-.76.74-1.9 1.1-3.8-.8.18-.42.34-.9.45-1.38.9.4 2.22 1.2 2.22 1.2-.14-.68-.78-1.38-2.07-2.33 0-.72-.02-1.38-.1-1.8zm.32 48.96c-1.7-.8-4.6-2.7-5.7-3.5-.73 1.92-1.8 2.83-2.92 3.03 1.94-4.5-1.47-8.53-5.07-7.18.3-1.6 2.5-2.9 5.4-.5 0-1.2-1-2.2-2.5-2.5 1.1-1.9 4.2-.5 5.3 5.1.6.5 4.7 2.7 8.3 2.6-.8 1-1.7 2-2.7 2.9zm11.4-29.5c-1.8.64-2.5-.96-3.28-3.47.6.1 1.1-.06 1.44-.16.5.7 1.46 2.5 1.46 2.5.12-.6-.08-1.8-.55-2.9.5-.3.9-.7 1.18-1.2 1.7 3.2 1.5 4.7-.24 5.3zm-4.72-10.22c-1.35 1.1-2.6.38-4.4-2.08.5-.1.92-.32 1.3-.6.78.53 2.14 1.7 2.14 1.7 0-.6-.92-1.86-1.44-2.42.37-.48.63-1.04.74-1.63 3.27 2.8 2.53 4.3 1.66 5zm-2.53-8.22c-.65-.54-3.83-3.36-9.75-6 .03-.2.07-.6.02-1.2 1.28.12 2.78.58 4.05.92-.36-.73-2.25-1.65-4.4-2-.16-.35-.5-.9-1.04-1.44 7.77.26 12.9 6.1 11.12 9.72zM11.25 65c-1.78-1.25-2.56-4.15-.18-4.9 2.08-.68 2.8 1.92 3.1 2.9-1.3.2-2.23.9-2.93 2zm62.48-5.33c-2.5-.62-1.34-3.5-1.14-4.8.4.32.8.53 1.3.64.1.7.2 2.1.2 2.1.4-.4.7-1.4.8-2 .5 0 1-.1 1.5-.4-.2 2-.3 5.2-2.8 4.5zm.88-5.57c-2.1-.1-1.9-2.44-1.8-4.52.5.24 1 .37 1.4.38.2.5.6 2.02.6 2.02.3-.5.5-1.58.5-2.1.5-.13 1-.36 1.5-.68.4 3.53.1 5-2 4.9zM13.4 38.2c1.18.55.63 2.1.14 3.16-.72-.58-1.6-.9-2.5-.9.64-1.74 1.2-2.84 2.37-2.27zm-1.84 4.85c1.28.46 1.07 1.83.62 3.77-.7-.4-1.7-.73-2.96-.56.44-2.86 1.04-3.66 2.33-3.2zM13.78 65c1.44-.6 2.16 1.86 2.95 2.92-1.05.08-1.9.75-2.3 1.68-.5-.83-2.45-3.86-.65-4.6zm2.4 4.67c1.1-.77 2.32.3 3.8 2.4-1.08.25-1.9 1.1-2.16 2.16-2.07-1.9-2.72-3.8-1.63-4.56zm3.5 4.2c.95-.93 2.52 0 4.28 1.77-.35.14-.65.35-.9.6l-1.55-.63c.2.6.7 1.2 1 1.5-.2.4-.3.9-.4 1.3-3.1-2.2-3.3-3.4-2.3-4.4zm4.07 3.84c.88-1.5 2.82-.6 4.77.8-.36.2-.65.5-.9.9-.52 0-1.5-.3-1.5-.3.2.6.6.9 1.05 1.2-.12.4-.18.8-.16 1.5-2.5-1.1-4-2.4-3.2-3.9zm4.9 2.8c.8-1.7 2.52-.9 4.88 0-.33.3-.6.7-.8 1.1h-1.57c.2.4.95.9 1.3 1-.06.6-.02 1.2.07 1.5-2.78-.5-4.68-1.8-3.87-3.5zm5.3 2.1c.45-2.2 3.03-1.4 4.8-1-.3.4-.5.9-.6 1.3-.55.2-1.68.3-1.68.3.37.4 1.2.7 1.6.8.02.5.15 1 .38 1.5-3.46-.1-4.87-.8-4.5-2.6zm5.6 1.1c.05-1.9 1.86-2.1 4.47-1.9-.25.5-.38 1-.38 1.5-.58.3-1.44.6-1.44.6.48.4 1.2.5 1.56.5.13.5.34.9.64 1.3-2.93.4-4.9.2-4.85-1.8zm5.6-.1c-.15-2 1.73-2.2 4.13-2.5-.12.4-.23 1-.12 1.6-.47.4-1.54.8-1.54.8.4.2 1.4.3 1.82.2.2.4.45.8.78 1.1-2.72.9-4.9 1-5.07-1zm5.54-1c-.6-2.1 1.9-2.6 3.6-3.2-.1.7 0 1.2.2 1.6-.4.4-1.6 1.2-1.6 1.2.7.1 1.5 0 2-.2.2.4.6.7.9 1-2.3 1.3-4.7 2-5.3-.1zm5.4-1.8c-1.1-1.8.9-3.1 2.9-4 0 .6.2 1.1.4 1.5-.4.5-1.4 1.4-1.4 1.4.6 0 1.5-.3 2-.6.3.3.7.6 1.1.8-2.3 1.8-4 2.7-5.2.9zm5-2.7c-1.4-1.4-.3-3.1 2.1-4.5 0 .1.2.8.7 1.4-.4.6-1.2 1.7-1.2 1.7.8-.2 1.5-.6 1.9-.9.3.3.8.5 1.2.6-1.8 2.1-3.4 3.3-4.8 1.9zm4.1-3.9c-1.5-1.3.2-3.2 1.5-4.6.2.5.5 1 .9 1.3l-.8 1.8c.6-.2 1.3-.8 1.6-1.2.4.2.9.3 1.4.3-1.5 2.4-3.1 3.9-4.7 2.5zM80 44c-2.4 0-3.44-3-4.26-5.84.64.34 1.3.52 1.94.52.46.64 1.26 2.25 1.26 2.25.08-.6-.08-1.9-.26-2.4.63-.2 1.18-.6 1.55-1.2C81.8 41 82.5 44 80 44zm-2-6.34c-2.4.46-3.85-2.8-5.12-5.15.45.1 1.3.3 2 .1.7.7 1.78 2.3 1.78 2.3 0-.7-.33-1.7-.84-2.6.6-.3 1.05-.9 1.3-1.5 2.3 3.9 3.2 6.4.9 6.9zm-2.88-6.1c-2 .85-3.6-.8-5.5-3.52.74.08 1.3-.1 1.75-.4.65.5 2.04 1.8 2.04 1.8 0-.6-.9-2-1.2-2.4.5-.5.8-1.1.9-1.9 3.1 3.4 4 5.7 2.1 6.48zm-3.7-5.16c-.9 1.02-2.56.55-3.07.23.13-.3.33-1 .45-1.8.55.3 1.58.9 1.58.9-.1-.5-.96-1.7-1.46-2.2 0-1-.13-2-.4-2.9 3.8 3.1 4.1 4.4 2.9 5.8zm-.95-9.16c-6.8 0-9.93-4.7-17.44-4-1.4-.7-3.05-1.3-4.6-2.1 1.73-.4 3.63-1.33 6.65-1.33 8.08 0 11.35 5.1 20.38 5.1-.3.7-1.4 2.5-5 2.5zM46.8 11.98c-2.8-.5-5.1-.73-8.1-.73 1.6-.62 2.9-1.66 3.77-3.24.7 1.6 2.5 3 4.33 4zm-12.72 9.2c.4 1.13-2 1.58-2.84 1.94-.05-.5-.25-1.1-.57-1.6 1.08-.5 3.05-1.3 3.4-.3zM28.7 23.1c.5.78-.85 1.62-2.22 2.3-.2-.56-.56-1.03-1.02-1.4 1.15-.8 2.7-1.7 3.24-.9zM23.97 26c.62.85-.6 1.55-1.75 2.52-.28-.58-.72-1.06-1.26-1.4 1.02-.93 2.48-1.88 3-1.13zm-4.2 3.3c.88.73-.25 2-1.18 2.98-.5-.73-1.2-1.13-1.7-1.3.8-.94 1.9-2.4 2.8-1.68zM4.57 60.26c2.17-.1 3.42 2.24 2.76 5-1-1.15-2.4-1.95-4.03-1.85-.42-.9-.73-3 1.27-3.1zM9.4 66.1c1.16-.18 2.2 1.3 3.48 3.85-1.36-.23-2.22-.06-3.1.83-1.5-2.56-2.1-4.4-.4-4.68zm2.4 5.25c1.34-.28 3.1 1.27 4.5 3.4-.96-.2-2.6.24-3.17 1.33-2.52-2.98-2.7-4.44-1.34-4.73zm3.48 4.9c2-.54 4.15 1.64 5.33 2.82-.5.05-1 .18-1.5.4-.8-.46-2.6-1.62-2.6-1.62.3.75 1.4 1.86 1.8 2.2-.3.3-.6.64-.7 1.05-2.9-2.53-4-4.33-2.2-4.84zm4.45 4.57c1.24-.7 3.6-.03 5.9 1.75-.6.16-1.15.42-1.6.77-.8-.28-2.96-1.43-2.96-1.43.44.8 1.85 1.9 2.27 2.2-.28.4-.46.9-.52 1.4-4.47-2.6-4.57-3.8-3.1-4.6zM25 84.5c1.6-1.24 3.8-.44 6.36.64-.6.3-1.15.7-1.55 1.17-.8-.1-2.9-.7-2.9-.7.4.5 1.8 1.3 2.4 1.6-.2.5-.4 1.2-.3 1.7-4.7-1.5-5.5-3.1-3.9-4.3zm6 2.77c1.1-1.4 3.07-1.42 6.34-.66-.58.5-1.04 1-1.36 1.6-1.1 0-3-.2-3-.2.5.5 2.06 1 2.6 1.1-.08.3-.13.6-.13.9 0 .3.04.6.12.9-5.14-.6-5.87-1.9-4.57-3.5zm18.9 1.6c0-2.2 2.58-3.5 5.48-4.36-.34.7-.52 1.4-.53 2.1-.86.6-3.17 1.5-3.17 1.5.93.2 2.8-.3 3.3-.5.2.6.53 1.1 1 1.5-3.14 1.5-6.1 2-6.1-.2zm6.45-2.27c-.05-1.24.75-2.98 4.38-4.7-.16.5-.37 1.38-.2 2.12-.82.7-2.6 1.88-2.6 1.88.85 0 2.07-.42 2.93-.92.34.73.98 1.17 1.22 1.3-3.72 2.75-5.65 2.47-5.73.32zm5.74-2.54c-.7-1.75 1.2-4.12 3.6-5.74-.2.86 0 1.7.1 2.13-1.1 1.26-2.5 2.42-2.5 2.42.9-.15 2.2-.87 2.9-1.53.3.58.9.9 1.4 1.07-3.1 3.1-5 3.4-5.7 1.7zm5.3-3.76c-1-1.54.4-4.33 2.6-6.4 0 .77.1 1.47.4 2.07l-1.9 2.72c.9-.3 1.9-1.3 2.5-1.9.4.4.9.7 1.5.8-2.7 3.6-4.4 4-5.3 2.6zm10.8-16.2c-1.8-1.2-1.3-4.3-.5-7.5.4.7.8 1.25 1.4 1.6v2.5c.4-.6.8-1.6.9-2.1.8.26 1.6 0 2-.25-.7 5.07-2.2 6.97-4 5.74zm1.8-6.6c-2.3-1.1-2-4.5-1.9-7.24.5.6 1.1 1.02 1.7 1.27l.4 2.5c.2-.5.5-1.7.5-2.26.7.1 1.4-.2 1.9-.6.2 4.95-.7 7.32-2.8 6.32zm.4-6.8c-2.2-.68-2.6-3.5-3-6.8.6.5 1.2.83 1.9.96.3.76.8 2.57.8 2.57.2-.82.2-1.95.1-2.52.6 0 1.3-.3 1.7-.9 1.2 5 .5 7.4-1.7 6.7zm1.1-12.84c1.1.84 3.2 2.07 6 2.2 1 4.1 3.7 6.08 4.6 6.7-3.3 1.53-8.8-1.26-10.7-8.9zm6.1 1.2c-5.1 0-7.7-5.04-9.1-7.72 1.2.63 3.5 1.47 6.1 1.18 1.5 3.08 3.7 4.76 5.9 5.7-.6.44-1.5.84-2.9.84zm-4-7.46c-5.3 0-8.7-5.75-9.1-6.28 1.1.36 3.2.94 6.1.2 1.7 2.7 4.2 3.86 6.9 4.7-.6.52-1.9 1.34-4 1.34zM78 24.9c-4 0-6.56-2.97-7.4-3.7-.66-.66-1.35-1.26-2.05-1.8.6.03 1.65.1 2.64.1 1.9 1.92 4.6 3.74 6.7 3.35-2.3-.8-4-2.04-5.5-3.53.7-.12 1.5-.3 2.3-.7 3.1 2.67 6.9 3.7 8.4 4.05-.5.7-1.9 2.2-5.3 2.2zM65.5 10.04c-4.33 0-10.44-5.02-18.37-5.02-1.64 0-2.85.72-3.42 1.8-.7-2.22 1-4.35 4.5-4.35 6.4 0 12.7 4.06 17.8 4.12 1.5 0 2.9-.4 4-1.3v.2c0 2.7-1.7 4.5-4.5 4.5zm-32.1 7.08c.38 1.24-2.04 1.47-3.36 2.03-.05-.65-.3-1.23-.7-1.7 1.33-.34 3.7-1.57 4.07-.33zm-20.76 13c1.3.74.28 1.98-1.13 4-.6-.72-1.4-1.2-2.3-1.34 1.1-1.6 2.1-3.44 3.5-2.66zM7.9 70.32c-1.15-.34-2.05 0-2.55.26-.82-2.08-1.72-3.84-2.4-5 2.48-1.3 4.45 3.3 4.96 4.75zm3.46 5.76c-1.04-.2-1.95.16-2.55.6-1.3-1.9-2.6-3.44-3.3-4.3 2.3-2.43 5.3 1.95 5.9 3.7zm4.5 5.4c-1.25-.08-2.14.43-2.65.87-.3-.37-2.3-2.5-4.1-3.73 1.4-2.32 4.5-.75 6.8 2.85zm5 4.35c-.97.2-1.9.8-2.34 1.38-.3-.2-2.53-2-4.88-2.9.75-2.1 4.45-1.7 7.23 1.6zm5.96 3.57c-.76.26-1.64.68-2.3 1.7-1.3-.7-3.35-1.78-5.27-2.03 1.05-3.35 5.4-1.5 7.57.32zm6.8 2.46c-1.17.5-2 1.5-2.3 2.1-.23-.07-3.35-1.15-5.88-1 .34-3.23 5.35-2.7 8.17-1.12zm6.82 1c-1.3.93-1.93 2.05-2.17 2.8v.02c-1.1-.14-3.6-.43-5.8.14 0-3.26 4.65-3.62 7.98-2.96zm7.28-.3c-.4.4-.77.96-1.1 1.4-.8 0-3.3.25-4 1.1 1.48-.14 2.43-.17 3.52-.1-.16.4-.27.85-.32 1.3-1.96.04-4.54.3-6.2 1.2-.42-2.7 2.8-5.04 8.1-4.9zm7.2-1.6c-.44.56-.9 1.4-1.16 1.9-.9.23-3.34.95-3.98 1.96 1.17-.34 2.57-.68 3.6-.83-.1.4-.15 1-.12 1.6-1.55.2-4.04.9-5.77 2.4-1.4-4.5 4.4-6.5 7.4-7zM83.8 52c.76 1.24 2.4 3.42 5.26 4.5-.58 4.67 1.25 7.17 1.82 7.97-4.7.27-8.06-5.3-7.08-12.47zm-.55-7.36c1 1.12 2.94 2.83 5.67 3.4.1 1.26.4 4.7 3.43 7.72-4.32.9-8.56-3.6-9.1-11.12z" class="cls-2"/>
</svg>
